<?xml version="1.0" encoding="utf-8"?>
<!-- Generator: Adobe Illustrator 21.1.0, SVG Export Plug-In . SVG Version: 6.00 Build 0)  -->
<svg version="1.1" id="Layer_2" xmlns="http://www.w3.org/2000/svg" xmlns:xlink="http://www.w3.org/1999/xlink" x="0px" y="0px"
	 viewBox="0 0 2880 1800" style="enable-background:new 0 0 2880 1800;" xml:space="preserve">
<style type="text/css">
	.st0{opacity:5.000000e-02;fill:none;stroke:#292F36;stroke-width:10;stroke-miterlimit:10;}
</style>
<rect x="800.5" y="690.3" transform="matrix(0.7071 -0.7071 0.7071 0.7071 -351.7027 1004.8557)" class="st0" width="473.3" height="473.3"/>
<rect x="1470.7" y="690.4" transform="matrix(0.7071 -0.7071 0.7071 0.7071 -155.4637 1478.7572)" class="st0" width="473.3" height="473.3"/>
<rect x="562.4" y="690.4" transform="matrix(0.7071 -0.7071 0.7071 0.7071 -421.4756 836.5475)" class="st0" width="473.3" height="473.3"/>
<rect x="1135.1" y="1156" transform="matrix(0.7071 -0.7071 0.7071 0.7071 -582.9742 1377.8875)" class="st0" width="473.3" height="473.3"/>
<rect x="1136" y="234.9" transform="matrix(0.7071 -0.7071 0.7071 0.7071 68.6363 1108.696)" class="st0" width="473.3" height="473.3"/>
<rect x="1724.7" y="683.4" transform="matrix(0.7071 -0.7071 0.7071 0.7071 -76.1229 1656.3639)" class="st0" width="473.3" height="473.3"/>
</svg>
