<?xml version="1.0" encoding="utf-8"?>
<!-- Generator: Adobe Illustrator 21.1.0, SVG Export Plug-In . SVG Version: 6.00 Build 0)  -->
<svg version="1.1" id="Layer_1" xmlns="http://www.w3.org/2000/svg" xmlns:xlink="http://www.w3.org/1999/xlink" x="0px" y="0px"
	 viewBox="0 0 2880 1800" style="enable-background:new 0 0 2880 1800;" xml:space="preserve">
<style type="text/css">
	.st0{opacity:5.000000e-02;fill:none;stroke:#292F36;stroke-width:5;stroke-miterlimit:10;enable-background:new    ;}
</style>
<rect x="1960" y="1429" transform="matrix(0.7071 -0.7071 0.7071 0.7071 -488.2818 1929.7372)" class="st0" width="250.5" height="250.5"/>
<rect x="2314.6" y="1429.1" transform="matrix(0.7071 -0.7071 0.7071 0.7071 -384.4699 2180.5203)" class="st0" width="250.5" height="250.5"/>
<rect x="1834.1" y="1429.1" transform="matrix(0.7071 -0.7071 0.7071 0.7071 -525.2177 1840.6946)" class="st0" width="250.5" height="250.5"/>
<rect x="2137.2" y="1675.5" transform="matrix(0.7071 -0.7071 0.7071 0.7071 -610.6625 2127.1853)" class="st0" width="250.5" height="250.5"/>
<rect x="2137.5" y="1188" transform="matrix(0.7071 -0.7071 0.7071 0.7071 -265.8546 1984.6675)" class="st0" width="250.5" height="250.5"/>
<rect x="2449.2" y="1425.4" transform="matrix(0.7071 -0.7071 0.7071 0.7071 -342.4374 2274.5452)" class="st0" width="250.5" height="250.5"/>
</svg>
