<?xml version="1.0" encoding="utf-8"?>
<!-- Generator: Adobe Illustrator 21.1.0, SVG Export Plug-In . SVG Version: 6.00 Build 0)  -->
<svg version="1.1" id="Layer_1" xmlns="http://www.w3.org/2000/svg" xmlns:xlink="http://www.w3.org/1999/xlink" x="0px" y="0px"
	 viewBox="0 0 2092.9 1800" style="enable-background:new 0 0 2092.9 1800;" xml:space="preserve">
<style type="text/css">
	.st0{opacity:5.000000e-02;fill:none;stroke:#292F36;stroke-width:5;stroke-miterlimit:10;enable-background:new    ;}
</style>
<rect x="-271.6" y="284" transform="matrix(0.7071 -0.7071 0.7071 0.7071 -332.234 16.3663)" class="st0" width="250.5" height="250.5"/>
<rect x="83" y="284.1" transform="matrix(0.7071 -0.7071 0.7071 0.7071 -228.4221 267.1496)" class="st0" width="250.5" height="250.5"/>
<rect x="-397.6" y="284" transform="matrix(0.7071 -0.7071 0.7071 0.7071 -369.1699 -72.6763)" class="st0" width="250.5" height="250.5"/>
<rect x="-94.5" y="530.4" transform="matrix(0.7071 -0.7071 0.7071 0.7071 -454.6147 213.8145)" class="st0" width="250.5" height="250.5"/>
<rect x="-94.1" y="42.9" transform="matrix(0.7071 -0.7071 0.7071 0.7071 -109.8068 71.2967)" class="st0" width="250.5" height="250.5"/>
<rect x="217.5" y="280.3" transform="matrix(0.7071 -0.7071 0.7071 0.7071 -186.3896 361.1745)" class="st0" width="250.5" height="250.5"/>
<rect x="1635.8" y="1117.6" transform="matrix(0.7071 -0.7071 0.7071 0.7071 -363.013 1609.2897)" class="st0" width="250.5" height="250.5"/>
<rect x="1990.5" y="1117.7" transform="matrix(0.7071 -0.7071 0.7071 0.7071 -259.2011 1860.0729)" class="st0" width="250.5" height="250.5"/>
<rect x="1509.9" y="1117.7" transform="matrix(0.7071 -0.7071 0.7071 0.7071 -399.949 1520.2471)" class="st0" width="250.5" height="250.5"/>
<rect x="1813" y="1364" transform="matrix(0.7071 -0.7071 0.7071 0.7071 -485.3937 1806.7378)" class="st0" width="250.5" height="250.5"/>
<rect x="1813.3" y="876.6" transform="matrix(0.7071 -0.7071 0.7071 0.7071 -140.5859 1664.22)" class="st0" width="250.5" height="250.5"/>
<rect x="2125" y="1113.9" transform="matrix(0.7071 -0.7071 0.7071 0.7071 -217.1687 1954.0978)" class="st0" width="250.5" height="250.5"/>
<rect x="1160.4" y="-188" transform="matrix(0.7071 -0.7071 0.7071 0.7071 420.8952 890.7086)" class="st0" width="250.5" height="250.5"/>
<rect x="1515" y="-187.9" transform="matrix(0.7071 -0.7071 0.7071 0.7071 524.7072 1141.4917)" class="st0" width="250.5" height="250.5"/>
<rect x="1034.4" y="-187.9" transform="matrix(0.7071 -0.7071 0.7071 0.7071 383.9593 801.666)" class="st0" width="250.5" height="250.5"/>
<rect x="1337.5" y="58.5" transform="matrix(0.7071 -0.7071 0.7071 0.7071 298.5146 1088.1567)" class="st0" width="250.5" height="250.5"/>
<rect x="1337.9" y="-429" transform="matrix(0.7071 -0.7071 0.7071 0.7071 643.3224 945.6389)" class="st0" width="250.5" height="250.5"/>
<rect x="1649.5" y="-191.6" transform="matrix(0.7071 -0.7071 0.7071 0.7071 566.7396 1235.5167)" class="st0" width="250.5" height="250.5"/>
</svg>
