<?xml version="1.0" encoding="utf-8"?>
<!-- Generator: Adobe Illustrator 21.1.0, SVG Export Plug-In . SVG Version: 6.00 Build 0)  -->
<svg version="1.1" id="Layer_1" xmlns="http://www.w3.org/2000/svg" xmlns:xlink="http://www.w3.org/1999/xlink" x="0px" y="0px"
	 viewBox="0 0 2880 1800" style="enable-background:new 0 0 2880 1800;" xml:space="preserve">
<style type="text/css">
	.st0{opacity:5.000000e-02;fill:none;stroke:#292F36;stroke-width:5;stroke-miterlimit:10;enable-background:new    ;}
</style>
<rect x="340.7" y="1435.4" transform="matrix(0.7071 -0.7071 0.7071 0.7071 -967.0739 786.5447)" class="st0" width="250.5" height="250.5"/>
<rect x="695.3" y="1435.5" transform="matrix(0.7071 -0.7071 0.7071 0.7071 -863.262 1037.3279)" class="st0" width="250.5" height="250.5"/>
<rect x="214.7" y="1435.4" transform="matrix(0.7071 -0.7071 0.7071 0.7071 -1004.0098 697.5021)" class="st0" width="250.5" height="250.5"/>
<rect x="517.8" y="1681.8" transform="matrix(0.7071 -0.7071 0.7071 0.7071 -1089.4546 983.9928)" class="st0" width="250.5" height="250.5"/>
<rect x="518.2" y="1194.4" transform="matrix(0.7071 -0.7071 0.7071 0.7071 -744.6467 841.4751)" class="st0" width="250.5" height="250.5"/>
<rect x="829.8" y="1431.7" transform="matrix(0.7071 -0.7071 0.7071 0.7071 -821.2295 1131.3528)" class="st0" width="250.5" height="250.5"/>
<rect x="2573.2" y="484.1" transform="matrix(0.7071 -0.7071 0.7071 0.7071 359.4621 2086.5964)" class="st0" width="250.5" height="250.5"/>
<rect x="2927.8" y="484.1" transform="matrix(0.7071 -0.7071 0.7071 0.7071 463.3033 2337.3086)" class="st0" width="250.5" height="250.5"/>
<rect x="2447.2" y="484.1" transform="matrix(0.7071 -0.7071 0.7071 0.7071 322.5555 1997.4829)" class="st0" width="250.5" height="250.5"/>
<rect x="2750.3" y="730.5" transform="matrix(0.7071 -0.7071 0.7071 0.7071 237.1107 2283.9736)" class="st0" width="250.5" height="250.5"/>
<rect x="2750.7" y="243" transform="matrix(0.7071 -0.7071 0.7071 0.7071 581.9186 2141.4558)" class="st0" width="250.5" height="250.5"/>
<rect x="3062.3" y="480.4" transform="matrix(0.7071 -0.7071 0.7071 0.7071 505.3356 2431.3335)" class="st0" width="250.5" height="250.5"/>
</svg>
