<?xml version="1.0" encoding="utf-8"?>
<!-- Generator: Adobe Illustrator 21.1.0, SVG Export Plug-In . SVG Version: 6.00 Build 0)  -->
<svg version="1.1" id="Layer_1" xmlns="http://www.w3.org/2000/svg" xmlns:xlink="http://www.w3.org/1999/xlink" x="0px" y="0px"
	 viewBox="0 0 1462.8 1800" style="enable-background:new 0 0 1462.8 1800;" xml:space="preserve">
<style type="text/css">
	.st0{opacity:5.000000e-02;fill:none;stroke:#292F36;stroke-width:5;stroke-miterlimit:10;enable-background:new    ;}
</style>
<rect x="-281.6" y="64" transform="matrix(0.7071 -0.7071 0.7071 0.7071 -179.5994 -55.1412)" class="st0" width="250.5" height="250.5"/>
<rect x="73" y="64.1" transform="matrix(0.7071 -0.7071 0.7071 0.7071 -75.7875 195.642)" class="st0" width="250.5" height="250.5"/>
<rect x="-407.6" y="64" transform="matrix(0.7071 -0.7071 0.7071 0.7071 -216.5354 -144.1838)" class="st0" width="250.5" height="250.5"/>
<rect x="-104.5" y="310.4" transform="matrix(0.7071 -0.7071 0.7071 0.7071 -301.9801 142.3069)" class="st0" width="250.5" height="250.5"/>
<rect x="-104.1" y="-177.1" transform="matrix(0.7071 -0.7071 0.7071 0.7071 42.8277 -0.2108)" class="st0" width="250.5" height="250.5"/>
<rect x="207.5" y="60.3" transform="matrix(0.7071 -0.7071 0.7071 0.7071 -33.7551 289.6669)" class="st0" width="250.5" height="250.5"/>
<rect x="1037.7" y="1277.7" transform="matrix(0.7071 -0.7071 0.7071 0.7071 -651.4102 1233.23)" class="st0" width="250.5" height="250.5"/>
<rect x="1392.3" y="1277.8" transform="matrix(0.7071 -0.7071 0.7071 0.7071 -547.5983 1484.0133)" class="st0" width="250.5" height="250.5"/>
<rect x="911.7" y="1277.8" transform="matrix(0.7071 -0.7071 0.7071 0.7071 -688.3461 1144.1874)" class="st0" width="250.5" height="250.5"/>
<rect x="1214.8" y="1524.1" transform="matrix(0.7071 -0.7071 0.7071 0.7071 -773.7908 1430.6782)" class="st0" width="250.5" height="250.5"/>
<rect x="1215.2" y="1036.7" transform="matrix(0.7071 -0.7071 0.7071 0.7071 -428.983 1288.1604)" class="st0" width="250.5" height="250.5"/>
<rect x="1526.8" y="1274" transform="matrix(0.7071 -0.7071 0.7071 0.7071 -505.5658 1578.0382)" class="st0" width="250.5" height="250.5"/>
</svg>
