<?xml version="1.0" encoding="utf-8"?>
<!-- Generator: Adobe Illustrator 21.1.0, SVG Export Plug-In . SVG Version: 6.00 Build 0)  -->
<svg version="1.1" id="Layer_1" xmlns="http://www.w3.org/2000/svg" xmlns:xlink="http://www.w3.org/1999/xlink" x="0px" y="0px"
	 viewBox="0 0 955.8 1800" style="enable-background:new 0 0 955.8 1800;" xml:space="preserve">
<style type="text/css">
	.st0{opacity:5.000000e-02;fill:none;stroke:#292F36;stroke-width:5;stroke-miterlimit:10;enable-background:new    ;}
</style>
<rect x="-206.4" y="60.9" transform="matrix(0.7071 -0.7071 0.7071 0.7071 -145.8987 -25.7479)" class="st0" width="204.7" height="204.7"/>
<rect x="83.4" y="61" transform="matrix(0.7071 -0.7071 0.7071 0.7071 -61.0805 179.2112)" class="st0" width="204.7" height="204.7"/>
<rect x="-309.3" y="61" transform="matrix(0.7071 -0.7071 0.7071 0.7071 -176.1205 -98.5094)" class="st0" width="204.7" height="204.7"/>
<rect x="-61.7" y="262.3" transform="matrix(0.7071 -0.7071 0.7071 0.7071 -245.9329 135.5752)" class="st0" width="204.7" height="204.7"/>
<rect x="-61.3" y="-136.1" transform="matrix(0.7071 -0.7071 0.7071 0.7071 35.8619 19.1568)" class="st0" width="204.7" height="204.7"/>
<rect x="193.3" y="57.9" transform="matrix(0.7071 -0.7071 0.7071 0.7071 -26.7203 256.007)" class="st0" width="204.7" height="204.7"/>
<rect x="744.2" y="1294.4" transform="matrix(0.7071 -0.7071 0.7071 0.7071 -739.694 1007.6796)" class="st0" width="204.7" height="204.7"/>
<rect x="1034" y="1294.5" transform="matrix(0.7071 -0.7071 0.7071 0.7071 -654.8759 1212.6388)" class="st0" width="204.7" height="204.7"/>
<rect x="641.2" y="1294.5" transform="matrix(0.7071 -0.7071 0.7071 0.7071 -769.9159 934.9182)" class="st0" width="204.7" height="204.7"/>
<rect x="888.9" y="1495.8" transform="matrix(0.7071 -0.7071 0.7071 0.7071 -839.7283 1169.0027)" class="st0" width="204.7" height="204.7"/>
<rect x="889.3" y="1097.4" transform="matrix(0.7071 -0.7071 0.7071 0.7071 -557.9335 1052.5844)" class="st0" width="204.7" height="204.7"/>
<rect x="1143.9" y="1291.4" transform="matrix(0.7071 -0.7071 0.7071 0.7071 -620.5156 1289.4346)" class="st0" width="204.7" height="204.7"/>
</svg>
