<?xml version="1.0" encoding="utf-8"?>
<!-- Generator: Adobe Illustrator 21.1.0, SVG Export Plug-In . SVG Version: 6.00 Build 0)  -->
<svg version="1.1" id="Layer_1" xmlns="http://www.w3.org/2000/svg" xmlns:xlink="http://www.w3.org/1999/xlink" x="0px" y="0px"
	 viewBox="0 0 2880 1800" style="enable-background:new 0 0 2880 1800;" xml:space="preserve">
<style type="text/css">
	.st0{opacity:0.15;fill:none;stroke:#292F36;stroke-width:5;stroke-miterlimit:10;enable-background:new    ;}
</style>
<rect x="37.6" y="87.4" transform="matrix(0.7071 -0.7071 0.7071 0.7071 -102.69 177.4694)" class="st0" width="250.5" height="250.5"/>
<rect x="392.2" y="87.5" transform="matrix(0.7071 -0.7071 0.7071 0.7071 1.1297 428.2159)" class="st0" width="250.5" height="250.5"/>
<rect x="-88.4" y="87.5" transform="matrix(0.7071 -0.7071 0.7071 0.7071 -139.618 88.3684)" class="st0" width="250.5" height="250.5"/>
<rect x="214.7" y="333.9" transform="matrix(0.7071 -0.7071 0.7071 0.7071 -225.0669 374.8473)" class="st0" width="250.5" height="250.5"/>
<rect x="215.1" y="-153.6" transform="matrix(0.7071 -0.7071 0.7071 0.7071 119.7313 232.3626)" class="st0" width="250.5" height="250.5"/>
<rect x="526.7" y="83.8" transform="matrix(0.7071 -0.7071 0.7071 0.7071 43.1554 522.2119)" class="st0" width="250.5" height="250.5"/>
<rect x="2573.6" y="1251.5" transform="matrix(0.7071 -0.7071 0.7071 0.7071 -182.9989 2311.605)" class="st0" width="250.5" height="250.5"/>
<rect x="2928.2" y="1251.5" transform="matrix(0.7071 -0.7071 0.7071 0.7071 -79.1794 2562.3513)" class="st0" width="250.5" height="250.5"/>
<rect x="2447.6" y="1251.5" transform="matrix(0.7071 -0.7071 0.7071 0.7071 -219.9271 2222.5039)" class="st0" width="250.5" height="250.5"/>
<rect x="2750.7" y="1497.9" transform="matrix(0.7071 -0.7071 0.7071 0.7071 -305.376 2508.9827)" class="st0" width="250.5" height="250.5"/>
<rect x="2751.1" y="1010.4" transform="matrix(0.7071 -0.7071 0.7071 0.7071 39.4222 2366.498)" class="st0" width="250.5" height="250.5"/>
<rect x="3062.7" y="1247.8" transform="matrix(0.7071 -0.7071 0.7071 0.7071 -37.1538 2656.3474)" class="st0" width="250.5" height="250.5"/>
<rect x="1617.6" y="-156.5" transform="matrix(0.7071 -0.7071 0.7071 0.7071 532.6039 1223.2294)" class="st0" width="250.5" height="250.5"/>
<rect x="1972.2" y="-156.5" transform="matrix(0.7071 -0.7071 0.7071 0.7071 636.4236 1473.9758)" class="st0" width="250.5" height="250.5"/>
<rect x="1491.6" y="-156.5" transform="matrix(0.7071 -0.7071 0.7071 0.7071 495.6758 1134.1283)" class="st0" width="250.5" height="250.5"/>
<rect x="1794.7" y="89.9" transform="matrix(0.7071 -0.7071 0.7071 0.7071 410.2269 1420.6072)" class="st0" width="250.5" height="250.5"/>
<rect x="1795.1" y="-397.6" transform="matrix(0.7071 -0.7071 0.7071 0.7071 755.0251 1278.1226)" class="st0" width="250.5" height="250.5"/>
<rect x="2106.7" y="-160.2" transform="matrix(0.7071 -0.7071 0.7071 0.7071 678.4493 1567.9718)" class="st0" width="250.5" height="250.5"/>
</svg>
