<?xml version="1.0" encoding="utf-8"?>
<!-- Generator: Adobe Illustrator 21.1.0, SVG Export Plug-In . SVG Version: 6.00 Build 0)  -->
<svg version="1.1" id="Layer_1" xmlns="http://www.w3.org/2000/svg" xmlns:xlink="http://www.w3.org/1999/xlink" x="0px" y="0px"
	 viewBox="0 0 2880 1800" style="enable-background:new 0 0 2880 1800;" xml:space="preserve">
<style type="text/css">
	.st0{opacity:5.000000e-02;fill:none;stroke:#292F36;stroke-width:5;stroke-miterlimit:10;}
</style>
<rect x="37.6" y="87.4" transform="matrix(0.7071 -0.7071 0.7071 0.7071 -102.6728 177.4106)" class="st0" width="250.5" height="250.5"/>
<rect x="392.2" y="87.5" transform="matrix(0.7071 -0.7071 0.7071 0.7071 1.1108 428.1991)" class="st0" width="250.5" height="250.5"/>
<rect x="-88.4" y="87.5" transform="matrix(0.7071 -0.7071 0.7071 0.7071 -139.6524 88.3795)" class="st0" width="250.5" height="250.5"/>
<rect x="214.7" y="333.9" transform="matrix(0.7071 -0.7071 0.7071 0.7071 -225.1044 374.8767)" class="st0" width="250.5" height="250.5"/>
<rect x="215.1" y="-153.6" transform="matrix(0.7071 -0.7071 0.7071 0.7071 119.7297 232.356)" class="st0" width="250.5" height="250.5"/>
<rect x="526.7" y="83.8" transform="matrix(0.7071 -0.7071 0.7071 0.7071 43.1249 522.2372)" class="st0" width="250.5" height="250.5"/>
<rect x="2573.6" y="1251.5" transform="matrix(0.7071 -0.7071 0.7071 0.7071 -183.0513 2311.603)" class="st0" width="250.5" height="250.5"/>
<rect x="2928.2" y="1251.5" transform="matrix(0.7071 -0.7071 0.7071 0.7071 -79.1796 2562.3206)" class="st0" width="250.5" height="250.5"/>
<rect x="2447.6" y="1251.5" transform="matrix(0.7071 -0.7071 0.7071 0.7071 -219.9428 2222.501)" class="st0" width="250.5" height="250.5"/>
<rect x="2750.7" y="1497.9" transform="matrix(0.7071 -0.7071 0.7071 0.7071 -305.3948 2508.9983)" class="st0" width="250.5" height="250.5"/>
<rect x="2751.1" y="1010.4" transform="matrix(0.7071 -0.7071 0.7071 0.7071 39.4393 2366.4778)" class="st0" width="250.5" height="250.5"/>
<rect x="3062.7" y="1247.8" transform="matrix(0.7071 -0.7071 0.7071 0.7071 -37.1656 2656.3586)" class="st0" width="250.5" height="250.5"/>
<rect x="1617.6" y="-156.5" transform="matrix(0.7071 -0.7071 0.7071 0.7071 532.5377 1223.2288)" class="st0" width="250.5" height="250.5"/>
<rect x="1972.2" y="-156.5" transform="matrix(0.7071 -0.7071 0.7071 0.7071 636.4092 1473.9465)" class="st0" width="250.5" height="250.5"/>
<rect x="1491.6" y="-156.5" transform="matrix(0.7071 -0.7071 0.7071 0.7071 495.6461 1134.127)" class="st0" width="250.5" height="250.5"/>
<rect x="1794.7" y="89.9" transform="matrix(0.7071 -0.7071 0.7071 0.7071 410.1941 1420.624)" class="st0" width="250.5" height="250.5"/>
<rect x="1795.1" y="-397.6" transform="matrix(0.7071 -0.7071 0.7071 0.7071 755.0281 1278.1035)" class="st0" width="250.5" height="250.5"/>
<rect x="2106.7" y="-160.2" transform="matrix(0.7071 -0.7071 0.7071 0.7071 678.4233 1567.9847)" class="st0" width="250.5" height="250.5"/>
</svg>
