<svg version="1.1" id="Layer_1" xmlns="http://www.w3.org/2000/svg" xmlns:xlink="http://www.w3.org/1999/xlink" x="0px" y="0px" viewBox="0 0 367.2 57.6" style="enable-background:new 0 0 367.2 57.6;" xml:space="preserve">
<style type="text/css">
	.st0{fill:#0055B8;}
	.st1{fill:url(#SVGID_1_);}
</style>
<g>
	<g>
		<polygon class="st0" points="122.2,8.5 116.7,8.5 116.7,45 136.8,45 136.8,40.4 122.2,40.4   "/>
		<path class="st0" d="M151.5,17c-6.6,0-10.4,2.9-10.4,7.8v12.9c0,5,3.8,7.8,10.4,7.8c6.6,0,10.4-2.9,10.4-7.8V24.8    C161.9,19.8,158.1,17,151.5,17z M146.3,25.8c0-2.8,1.7-4.1,5.2-4.1c3.5,0,5.2,1.3,5.2,4.1v10.8c0,2.8-1.6,4.1-5.2,4.1    c-3.6,0-5.2-1.3-5.2-4.1V25.8z"/>
		<path class="st0" d="M182.7,18.5c-2.2-1.1-4.4-1.6-7.1-1.6c-5.2,0-8.3,2.8-8.3,7.5V37c0,4.8,3.3,7.8,8.5,7.8c2,0,4.1-0.5,6.2-1.4    v1c0,3.6-2.4,5.4-7.2,5.4c-2.3,0-5.4-0.4-6.6-0.7l-0.5-0.1v4.6l0.3,0.1c1.8,0.4,4.7,0.7,7,0.7c8.5,0,12.3-3,12.3-9.8V17.3H183    L182.7,18.5z M172.6,25.4c0-3.1,2.3-3.7,4.2-3.7c1.9,0,3.3,0.4,5.3,1.3v15.8c-1.8,0.8-3.5,1.2-5.1,1.2c-3.6,0-4.3-2.3-4.3-4.3    V25.4z"/>
		<path class="st0" d="M215,21.9v-3.2c0-6.8-4.1-10.1-12.6-10.1h-9.2V45h5.6V31.3h4.3l8.7,13.7h6.3l-9.4-14.5    C212.9,29.3,215,26.4,215,21.9z M198.8,26.6V13.2h3.9c4.7,0,6.8,1.8,6.8,5.7v2.4c0,3.7-2.1,5.3-7,5.3H198.8z"/>
		<path class="st0" d="M234.6,17c-2.3,0-4.8,0.6-7.4,1.9V8.5H222V45h5.2V23.5c1.6-0.8,3.9-1.7,5.9-1.7c2.3,0,3.4,1.2,3.4,3.6V45h5.3    V24.1C241.8,19.5,239.3,17,234.6,17z"/>
		<path class="st0" d="M257.4,38L251,17.5h-5.6l9.4,27.1l-0.1,0.2c-1.5,4.4-3.3,5.2-5.7,5.2c-1,0-1.6-0.1-2.1-0.2l-0.5-0.2v4.5    l0.3,0.1c0.7,0.2,1.5,0.3,2.9,0.3c4.3,0,7.6-1.5,10.1-8.9l9.4-28.1h-5.7L257.4,38z"/>
		<path class="st0" d="M282.4,40.8c-2.6,0-3.7-1.1-3.7-3.7V21.8h6.4v-4.4h-6.4v-6.9h-4.3l-1,6.9l0,4.4v16c0,5,2.6,7.5,7.9,7.5    c1.7,0,3.6-0.3,4.5-0.5l0.3-0.1v-4.5l-0.5,0.2C285.2,40.6,283.6,40.8,282.4,40.8z"/>
		<path class="st0" d="M304.2,17c-2.3,0-4.8,0.6-7.4,1.9V8.5h-5.2V45h5.2V23.5c1.6-0.8,3.9-1.7,5.9-1.7c2.3,0,3.4,1.2,3.4,3.6V45    h5.3V24.1C311.4,19.5,308.8,17,304.2,17z"/>
		<path class="st0" d="M343.3,17c-2.9,0-5.8,0.9-8.1,2.6c-1.2-1.7-3.3-2.6-6.1-2.6c-2.4,0-5.1,0.8-7,2l-0.4-1.7h-4.3V45h5.2V23.3    c1.5-1,3.5-1.6,5.4-1.6c2.4,0,3.4,1.2,3.4,3.9V45h5.2V24.4c0-0.3,0-0.7-0.1-1c1.9-1.2,3.7-1.8,5.5-1.8c2.3,0,3.4,1.2,3.4,3.9V45    h5.3V24.4C350.7,19.7,348,17,343.3,17z"/>
	</g>
	<g>
		<path class="st0" d="M355.2,19.1v3.3h-1v-3.3h-1.2v-0.8h3.4v0.8H355.2z M360.7,22.4v-2.9h0l-1.1,2.9H359l-1.1-2.9h0v2.9h-1v-4.1    h1.4l1,2.7l1-2.7h1.3v4.1H360.7z"/>
	</g>
	<g>
		<linearGradient id="SVGID_1_" gradientUnits="userSpaceOnUse" x1="14.3156" y1="44.515" x2="77.1013" y2="17.3445">
			<stop offset="0.1512" style="stop-color:#00ADA3"/>
			<stop offset="0.4968" style="stop-color:#00B6ED"/>
			<stop offset="1" style="stop-color:#0055B8"/>
		</linearGradient>
		<path class="st1" d="M100.8,3.3l-1.1,3c-2.2,5.9-5.8,14.9-10.7,24.1C80.4,46.8,73,50.3,68.3,50.3c-5.1,0-8.4-5.4-10.4-11    c-1.4-3.9-2-8-3.2-11.9c-1.9-6.2-4.4-10-6.9-10c-5.4,0-8.7,9.7-9.5,13.4L38,32.4l-32.6,0L6,29.7C6.1,29,9.7,12.9,19.8,12.9    c4.9,0,8,4.8,10.1,10.3h-4.8c-1.6-3.7-3.5-5.9-5.3-5.9C15,17.3,12,25.1,11,28h23.4c1.3-4.7,5.3-15.1,13.4-15.1    c4.5,0,7.6,4.2,9.6,9c0.4,1.4,0.9,2.8,1.3,4.2c1.4,4.9,2.4,9.9,4.5,14.6c0.9,2,2.4,5.1,5,5.1c2.9,0,8.9-2.3,16.9-17.5    c4.1-7.8,7.3-15.5,9.3-20.6H71.1c-1.8,4.7-4.5,11.3-8,18.4c-0.3-1.2-0.6-2.3-0.9-3.5c-0.3-1-0.6-2-0.9-3c2.7-5.8,4.7-11.1,6.2-15    l0.5-1.4H100.8z M52.6,35.8c-5.8,8.5-10.2,10-12.4,10c-2.2,0-4.6-3.3-6.4-8.7h-4.7c1.9,6.3,5.3,13.1,11.1,13.1    c3.3,0,8.1-1.8,13.8-8.9C53.6,39.5,53.1,37.7,52.6,35.8z"/>
	</g>
</g>
</svg>